<?xml version="1.0" encoding="UTF-8" standalone="no"?>
<!-- Created with Inkscape (http://www.inkscape.org/) -->

<svg
   xmlns:dc="http://purl.org/dc/elements/1.1/"
   xmlns:cc="http://creativecommons.org/ns#"
   xmlns:rdf="http://www.w3.org/1999/02/22-rdf-syntax-ns#"
   xmlns:svg="http://www.w3.org/2000/svg"
   xmlns="http://www.w3.org/2000/svg"
   xmlns:sodipodi="http://sodipodi.sourceforge.net/DTD/sodipodi-0.dtd"
   xmlns:inkscape="http://www.inkscape.org/namespaces/inkscape"
   version="1.1"
   id="svg2"
   width="392.35797"
   height="370.07059"
   viewBox="0 0 392.35797 370.07059"
   sodipodi:docname="logo.svg"
   inkscape:version="0.92.3 (2405546, 2018-03-11)">
  <metadata
     id="metadata8">
    <rdf:RDF>
      <cc:Work
         rdf:about="">
        <dc:format>image/svg+xml</dc:format>
        <dc:type
           rdf:resource="http://purl.org/dc/dcmitype/StillImage" />
        <dc:title></dc:title>
      </cc:Work>
    </rdf:RDF>
  </metadata>
  <defs
     id="defs6" />
  <sodipodi:namedview
     pagecolor="#ffffff"
     bordercolor="#666666"
     borderopacity="1"
     objecttolerance="10"
     gridtolerance="10"
     guidetolerance="10"
     inkscape:pageopacity="0"
     inkscape:pageshadow="2"
     inkscape:window-width="2560"
     inkscape:window-height="1056"
     id="namedview4"
     showgrid="false"
     inkscape:zoom="1.18"
     inkscape:cx="83.844751"
     inkscape:cy="130.8834"
     inkscape:window-x="1920"
     inkscape:window-y="0"
     inkscape:window-maximized="1"
     inkscape:current-layer="svg2"
     fit-margin-top="0"
     fit-margin-left="0"
     fit-margin-right="0"
     fit-margin-bottom="0" />
  <path
     style="fill:#000000"
     d="m 88.857984,368.96844 c -3.299998,-0.75559 -8.249998,-2.02982 -10.999998,-2.83162 -4.93218,-1.43805 -5.00455,-1.51751 -5.33605,-5.85859 -0.72677,-9.5172 3.90921,-22.12377 10.15135,-27.60444 1.89405,-1.663 7.792728,-5.09763 13.108168,-7.6325 5.315436,-2.53488 10.267506,-5.21194 11.004596,-5.94903 5.05142,-5.05142 15.88505,-38.91566 20.08557,-62.78434 1.83955,-10.45291 1.96633,-24.9678 0.23636,-27.0597 -0.6875,-0.83133 -3.725,-2.10351 -6.75,-2.82706 -6.35305,-1.5196 -10.30342,-3.14414 -25.613886,-10.53337 -12.483688,-6.02495 -21.084568,-13.11757 -27.229728,-22.45471 -3.56514,-5.41699 -3.6561,-5.79265 -3.6453,-15.05561 0.0124,-10.61273 -0.18651,-10.1437 11.79325,-27.81168 5.97008,-8.80478 7.68452,-13.19732 7.68452,-19.68832 0,-6.45915 -1.62669,-10.63151 -8.83079,-22.65038 -3.74162,-6.24229 -8.71436,-14.837122 -11.05054,-19.099622 -2.33619,-4.262499 -4.66609,-7.749999 -5.17756,-7.749999 -0.51148,0 -0.92996,0.20305 -0.92996,0.45121 0,0.24817 -0.68166,3.06067 -1.51481,6.249999 -6.04928,23.157012 -5.79995,81.598102 0.55376,129.798792 2.39234,18.14882 4.98435,36.15461 6.79759,47.22039 0.7728,4.7162 0.6387,5.42398 -1.38852,7.32844 -2.1678,2.03655 -2.35765,2.05024 -5.59597,0.40369 -6.82866,-3.4721 -24.50878,-18.07597 -37.43414,-30.92079 C 3.1527162,226.38336 -0.05533384,219.03068 7.1616373e-4,198.87747 0.05511616,179.32741 4.3925662,161.75582 16.909666,130.37747 c 3.25918,-8.17023 23.12048,-48.617391 28.23497,-57.500001 0.95005,-1.65 3.48587,-6.15 5.63515,-10 13.54283,-24.25924 26.81082,-36.78663 52.447484,-49.51995 C 124.01766,3.0312693 137.84999,-0.04137068 163.35798,4.1931778e-4 183.05332,0.03271932 188.17727,0.84987932 200.77121,5.9672593 c 5.44731,2.21343 7.29294,2.41021 22.60592,2.41021 19.85565,0 58.90163,1.58335 74.98085,3.0405497 39.28532,3.56026 70.21751,13.08006 84.28977,25.94131 5.40473,4.93961 9.71023,12.03205 9.71023,15.9956 0,1.50111 -3.01903,5.32056 -9.00343,11.39047 -10.85889,11.01405 -16.43974,18.34436 -21.26218,27.927409 -5.73596,11.398372 -8.89504,19.884772 -10.87147,29.204662 -2.54611,12.00617 -2.97897,14.71396 -4.39604,27.5 -1.69509,15.29455 -2.0855,17 -3.89167,17 -1.12152,0 -5.6213,-6.9333 -12.3312,-19 -9.25499,-16.64364 -31.48068,-51.761252 -39.23938,-62.000001 -1.45872,-1.925 -4.64287,-6.2 -7.0759,-9.5 -2.43302,-3.3 -4.64981,-6.225 -4.9262,-6.5 -0.27639,-0.275 -2.95111,-3.425 -5.94383,-7 -10.1594,-12.13609 -24.44905,-25.18977 -34.27352,-31.30904 -4.39491,-2.73742 -4.24876,-2.00043 0.69335,3.49639 7.08267,7.87763 7.95452,10.05677 7.9268,19.81265 -0.0288,10.12998 -3.83759,22.47883 -13.43824,43.569219 -6.81454,14.969972 -6.67864,18.133462 1.20781,28.115272 3.39619,4.29853 6.46339,8.04051 6.81599,8.31551 1.15173,0.89824 6.56666,9.43243 7.80246,12.29705 0.66366,1.53838 1.20665,6.67982 1.20665,11.42541 0,7.94975 -0.29416,9.22408 -3.74022,16.20295 -7.44382,15.075 -25.96365,30.47169 -56.05856,46.60498 l -5.29878,2.84057 0.79878,5.56452 c 2.01356,14.02697 0.13777,21.67595 -6.93621,28.28403 -6.42779,6.00446 -18.6925,9.49411 -29.20149,8.30865 -6.50426,-0.73372 -9.68521,-2.07679 -14.48588,-6.11628 -1.73916,-1.46341 -3.3331,-2.48976 -3.54208,-2.28078 -0.54388,0.54389 -4.25935,14.8123 -6.60602,25.3689 -1.10035,4.95 -2.2292,9.75357 -2.50855,10.67461 -0.34252,1.12931 0.40171,2.10858 2.28555,3.00738 5.66385,2.70227 2.90142,10.87059 -3.79012,11.20713 -2.92392,0.14705 -3.75633,0.7978 -5.83075,4.55831 -3.88946,7.05085 -9.45264,11.79726 -19.380416,16.53508 -5.06289,2.41615 -10.598328,5.88351 -12.300978,7.70525 -3.68817,3.94609 -6.65231,12.93862 -6.21655,18.85953 0.3005,4.08294 0.48212,4.29364 4.81228,5.58271 8.352438,2.48649 9.616338,2.06126 11.532398,-3.88 0.93122,-2.8875 2.72074,-7.05055 3.97672,-9.25122 4.334716,-7.5951 9.631396,-10.2107 6.229116,-3.07605 -1.94888,4.08685 -5.066,18.58585 -4.18329,19.45819 0.34455,0.34049 6.77313,0.59249 14.28575,0.55998 14.52078,-0.0628 17.09366,-0.58145 28.54991,-5.75491 l 6.89061,-3.11169 -0.65896,-10.53715 c -0.93982,-15.02839 -2.32303,-33.44404 -3.66593,-48.8073 -1.04288,-11.93082 -0.99185,-13.5267 0.5056,-15.81209 0.91605,-1.39806 2.18899,-2.36745 2.82876,-2.1542 1.39266,0.46422 2.99293,12.27674 4.70584,34.73644 0.69212,9.075 1.70614,17.0625 2.25338,17.75 0.63482,0.79753 3.67068,1.25 8.38684,1.25 h 7.39186 l -0.52828,-14.25 c -0.29056,-7.8375 -0.74834,-19.30125 -1.01729,-25.47499 -0.48564,-11.14787 -0.47159,-11.23641 2.04519,-12.88546 1.3938,-0.91326 2.75223,-1.44243 3.01872,-1.17593 0.26649,0.26649 0.92865,9.21494 1.47146,19.88545 1.40876,27.69335 3.30461,39.90375 7.54667,48.60503 3.04697,6.24994 7.06187,9.84302 12.73039,11.39289 4.87501,1.33291 29.81633,0.44873 32.82941,-1.16382 1.45003,-0.77604 1.87512,-2.13809 1.87512,-6.00819 0,-5.7726 -2.37607,-11.05621 -6.90842,-15.36207 -1.70037,-1.6154 -3.09158,-3.5279 -3.09158,-4.25 0,-2.31161 4.53925,-1.40543 7.19875,1.43709 4.27111,4.56506 5.62108,7.91528 8.2661,20.51401 0.57241,2.72651 0.62111,2.7429 3.58904,1.20812 3.78325,-1.95639 8.90935,-7.25739 9.06126,-9.37044 0.39186,-5.45028 -1.61639,-9.58507 -7.93772,-16.34309 -7.72975,-8.26373 -11.2869,-9.80451 -22.81399,-9.88189 -7.7109,-0.0518 -11.06373,0.39082 -15.36344,2.02803 -6.49506,2.47314 -6.00305,2.40369 -5.98762,0.84526 0.0163,-1.64174 5.57211,-5.19065 11.09033,-7.08415 2.52906,-0.86782 4.30486,-2.0733 4.17973,-2.83736 -0.11966,-0.73067 -0.66256,-3.35349 -1.20645,-5.82849 -1.24828,-5.6804 -1.38214,-14.73161 -0.19891,-13.45 0.90435,0.97953 3.21431,7.84309 5.06893,15.06122 l 1.05634,4.11122 5.74882,0.56197 c 13.81854,1.35082 23.73386,6.85469 29.3244,16.2776 3.01248,5.07755 4.19801,6.1629 8.4638,7.74857 2.72835,1.01418 7.99813,2.09945 11.71063,2.41173 l 6.75,0.56776 v -3.80718 c 0,-2.30069 -1.034,-5.57156 -2.61311,-8.26611 -2.90438,-4.95595 -2.09624,-6.66888 2.6048,-5.5212 3.43781,0.83929 3.97318,1.94892 4.00665,8.30442 0.0533,10.11903 2.05918,12.38999 6.93307,7.84928 2.05482,-1.91436 2.23832,-2.74807 1.6697,-7.58613 -0.74917,-6.37426 -2.56891,-10.25933 -6.61776,-14.12863 -3.99181,-3.81478 -9.06532,-5.13452 -19.73887,-5.13452 h -9.02347 l -0.66992,-12.25 c -0.707,-12.92822 -1.44688,-15.964 -5.35368,-21.96658 -3.76626,-5.78665 -8.54621,-8.13101 -15.19741,-7.45366 -7.42284,0.75593 -13,2.48915 -13,4.04003 0,0.70168 1.35,4.0627 3,7.46893 3.14045,6.48309 3.5779,8.16128 2.12736,8.16128 -1.48391,0 -9.97268,-9.87232 -13.38516,-15.56675 -5.63895,-9.40976 -18.62807,-40.27101 -20.80585,-49.43325 l -0.83192,-3.5 1.92035,2.5 c 1.0562,1.375 4.60181,7.675 7.87914,14 8.89992,17.17616 14.41816,27.42145 16.09608,29.88435 l 1.5,2.20174 7.98788,-2.54304 c 9.09429,-2.89529 18.12066,-3.31396 22.51009,-1.0441 5.9242,3.06352 10.57916,12.35403 11.74838,23.44776 l 0.57406,5.44671 4.41288,-4.87419 c 11.38846,-12.57894 15.34032,-30.68641 10.76414,-49.32136 -3.10299,-12.63586 0.51996,-11.47412 7.17926,2.30213 5.12417,10.60048 6.80042,17.24413 6.81232,27 0.0161,13.14757 -3.69051,22.50792 -12.72934,32.14599 l -2.95039,3.14599 4.01742,0.67874 c 10.20993,1.72496 18.1733,11.59126 18.1733,22.51599 0,7.96302 -2.97498,12.08846 -11.36481,15.7597 -3.55729,1.55661 -20.67368,1.64819 -26.10729,0.13969 -3.67446,-1.02013 -4.08658,-0.92672 -5.5,1.24659 -7.47497,11.49373 -16.02648,15.63951 -37.98989,18.41754 -13.80373,1.74596 -19.24631,1.81172 -26.23879,0.31701 -8.18434,-1.74948 -10.66422,-4.9688 -17.00178,-22.07131 -1.05075,-2.83554 -1.77896,-3.04971 -14.04744,-4.13144 l -4.75,-0.41882 v 8.79314 8.79313 l -3.75,2.89871 c -4.36069,3.37076 -12.88986,7.60689 -19.86342,9.86543 -6.86122,2.22216 -35.673856,2.87533 -43.886576,0.99489 z M 276.93132,297.91488 c 7.36564,-7.51208 10.01983,-11.83728 8.15032,-13.28159 -3.33911,-2.57966 -4.53865,-2.03591 -10.85216,4.91925 -3.50432,3.86048 -7.42969,8.77538 -8.72304,10.92199 l -2.35154,3.90294 h 3.71991 c 3.25581,0 4.51048,-0.80629 10.05651,-6.46259 z M 167.2351,256.34749 c 4.9011,-2.22381 10.73621,-6.97368 13.36629,-10.88038 1.96799,-2.92323 2.36616,-11.35616 0.73834,-15.63763 -0.86806,-2.28317 -1.42116,-2.58027 -3.75,-2.01428 -1.50246,0.36515 -5.0627,0.91914 -7.91164,1.2311 -4.36734,0.47823 -5.70071,0.2015 -8.5,-1.7641 -4.172,-2.92948 -5.02469,-3.96861 -9.54842,-11.63628 -4.11563,-6.97594 -4.83807,-6.76264 -5.83578,1.72294 -0.74256,6.31545 -2.68733,10.00861 -5.2704,10.00861 -2.42455,0 -5.99827,3.48546 -6.78413,6.6166 -0.95558,3.80735 0.21259,12.69755 2.16443,16.47198 3.50407,6.77613 5.88629,7.84876 17.45419,7.85905 7.35507,0.007 10.48828,-0.43997 13.87712,-1.97761 z m -11.71665,-11.72002 c -2.84622,-7.23283 -3.59883,-20.25 -1.17078,-20.25 1.12101,0 2.86911,7.63103 3.63442,15.86542 0.69681,7.4974 -0.44149,9.52326 -2.46364,4.38458 z m 24.83953,-26.09026 c 38.47154,-19.32429 59.20747,-36.90774 64.58105,-54.76279 2.75598,-9.15743 0.77742,-19.64396 -4.8245,-25.57032 -0.6911,-0.73112 -2.96503,-3.45505 -5.05317,-6.05317 -2.08815,-2.59812 -4.43074,-5.35796 -5.20577,-6.13299 -0.77502,-0.77502 -2.37789,-3.26774 -3.56194,-5.53938 -1.82099,-3.49365 -2.07117,-5.24542 -1.62317,-11.36566 0.29129,-3.97949 0.83144,-8.41451 1.20032,-9.855622 0.5842,-2.28224 0.27194,-2.75919 -2.42106,-3.69798 -2.68943,-0.93754 -3.09176,-1.54986 -3.09176,-4.70548 0,-4.45792 2.80647,-7.237179 9.60441,-9.511279 5.33803,-1.78571 6.91797,-3.89615 9.70606,-12.96507 2.65853,-8.64744 3.88848,-16.86293 3.16537,-21.14302 -0.53537,-3.16879 -2.34566,-5.67472 -9.32013,-12.90159 l -8.65571,-8.96895 -5.40301,0.007 -5.40301,0.007 2.30602,-2 c 2.85722,-2.47805 10.35254,-2.67841 17.772,-0.47507 13.66131,4.05698 36.45252,24.88686 56.86902,51.97507 13.58175,18.019989 31.00964,44.468741 40.85371,62.000001 8.49127,15.12207 10.45183,16.76697 10.48996,8.80105 0.0255,-5.3307 4.63866,-26.26138 7.78039,-35.30105 6.50986,-18.730762 14.48981,-31.546101 27.86502,-44.749621 5.15345,-5.0873 9.36568,-9.8123 9.36052,-10.5 -0.005,-0.68771 -1.33701,-3.56515 -2.95966,-6.39432 -13.2778,-23.15049 -67.35463,-35.73045 -151.85135,-35.32536 l -28.67961,0.13749 -6.27897,-2.60394 C 187.59573,6.8020093 178.70797,5.3756493 163.0426,5.3995593 c -15.83226,0.0242 -25.00767,1.62494 -40.16104,7.0066897 -10.20798,3.62539 -24.524426,10.87604 -33.752876,17.09435 -8.467658,5.70567 -20.918048,18.34156 -23.591548,23.94304 -2.58809,5.42253 -2.94621,16.46447 -0.7959,24.5398 1.5684,5.89001 9.08572,21.308829 13.55827,27.809461 1.68217,2.44495 3.05848,4.67188 3.05848,4.94874 0,0.27686 1.33514,2.67078 2.96696,5.31982 5.639718,9.1553 5.630948,22.82238 -0.0208,32.40776 -1.73747,2.94677 -4.42623,7.19955 -5.97501,9.45062 -6.39539,9.29539 -9.09615,16.08639 -9.09615,22.87209 0,13.0228 7.93405,21.52797 30.624998,32.82952 10.127096,5.04395 23.649426,8.75646 31.894226,8.75646 6.28339,0 7.54118,-1.94547 9.69007,-14.988 1.82627,-11.08444 3.55684,-16.28978 5.4157,-16.28978 1.44283,0 3.37153,4.3274 4.44019,9.96239 2.52172,13.29699 8.87217,23.34883 14.70981,23.28349 1.5675,-0.0175 8.025,-2.63131 14.35,-5.80836 z m -43.40862,-37.23747 c -3.24975,-2.15725 -6.28725,-3.92227 -6.75,-3.92227 -0.46276,0 -0.84138,1.32344 -0.84138,2.94098 0,1.61754 -0.42011,3.20063 -0.93357,3.51797 -2.62355,1.62144 -17.78252,-6.45763 -22.0437,-11.74833 -3.55976,-4.41981 -3.36834,-9.68842 0.5,-13.76193 7.84795,-8.2642 28.1509,-13.94821 49.82336,-13.94852 15.34712,-2.2e-4 21.58663,1.70812 27.40391,7.50302 5.283,5.26268 5.625,8.86118 1.3093,13.77649 -3.3988,3.87102 -17.07219,10.6441 -23.12786,11.45634 l -4.07644,0.54677 1.57668,-3.8914 c 1.4989,-3.69944 1.20498,-3.5091 -5.95856,3.85861 -4.14438,4.2625 -8.30876,7.71502 -9.25418,7.67227 -0.94542,-0.0428 -4.37782,-1.84276 -7.62756,-4 z m -26.58747,-40.57716 c -5.63192,-8.88061 -8.36365,-22.99556 -7.85671,-40.59596 0.29147,-10.119942 0.7089,-12.857542 2.40143,-15.749151 2.93187,-5.00897 7.20228,-5.33053 10.64513,-0.80157 4.11435,5.412279 5.48519,8.800999 7.69988,19.034121 2.32443,10.74018 2.83412,27.19596 1.01803,32.86823 -2.47232,7.7219 -4.15737,9.89922 -7.6611,9.89922 -2.83152,0 -3.70956,-0.6543 -6.24666,-4.65489 z m 7.73619,-32.77183 c 0.3457,-7.08166 0.10998,-9.512292 -1.07388,-11.073282 -1.48579,-1.9591 -1.53879,-1.94243 -2.59152,0.8151 -1.38638,3.631522 -1.3892,16.727522 -0.004,20.369802 1.00199,2.63539 1.13915,2.6921 2.14859,0.88838 0.59305,-1.0597 1.27759,-6.0097 1.52119,-11 z m 56.08254,31.67672 c -6.08856,-7.1638 -8.73607,-23.40757 -6.76809,-41.525542 1.3655,-12.571329 3.55525,-18.472029 7.78141,-20.968479 8.03723,-4.74771 13.79009,6.02012 14.85087,27.796941 0.85042,17.4582 -2.01576,30.99657 -7.4515,35.19708 -2.32593,1.79738 -6.68008,1.53859 -8.41269,-0.5 z m 10.65168,-25.20034 c 3.01649,-5.83325 1.4114,-26.049662 -2.06822,-26.049662 -1.94401,0 -2.4061,2.59589 -2.4061,13.516692 0,9.19724 0.9945,15.48331 2.44957,15.48331 0.27449,0 1.18563,-1.32765 2.02475,-2.95034 z m 28.9248,-33.451961 c -1.38767,-3.61621 9.84456,-20.5977 13.62413,-20.5977 1.53454,0 1.97675,0.67856 1.97675,3.03325 0,8.47347 -13.33028,23.481539 -15.60088,17.56445 z M 88.333224,66.127469 c -2.026748,-3.30111 -2.014028,-4.52941 0.13416,-12.95795 0.51978,-2.03937 2.41519,-5.63937 4.21203,-8 3.02662,-3.97626 3.65157,-4.31434 8.493976,-4.59504 4.15795,-0.24103 5.88737,0.16514 8.45579,1.98589 8.98825,6.37175 16.7288,16.2812 16.7288,21.41619 0,1.8705 -0.34876,3.40091 -0.77503,3.40091 -0.42626,0 -4.10613,-3.35349 -8.17749,-7.45219 -8.68241,-8.74076 -11.94068,-10.50303 -15.32233,-8.28728 -2.415346,1.58259 -5.811716,7.72859 -7.730796,13.98947 -1.41285,4.60933 -3.39506,4.77399 -6.01911,0.5 z M 232.95774,51.166239 c -1.43105,-1.25882 -2.88267,-3.75127 -3.22583,-5.53877 -0.60579,-3.15551 -0.52435,-3.25 2.80107,-3.25 4.26399,0 5.825,1.4947 5.825,5.57756 0,4.74681 -2.18052,6.04344 -5.40024,3.21121 z m -45.97576,-2.54942 c -7.55355,-4.74846 -11.4478,-4.84974 -17.94235,-0.46662 -2.63005,1.775 -5.34435,3.22727 -6.03178,3.22727 -2.17297,0 -3.64987,-2.28808 -3.64987,-5.65454 0,-5.9117 7.93024,-11.34546 16.558,-11.34546 7.74895,0 21.65324,11.67998 19.76429,16.60253 -0.80128,2.08808 -2.23878,1.69753 -8.69829,-2.36318 z M 131.37163,299.62747 c 0.0153,-6.42779 0.78989,-10.25 2.0773,-10.25 1.56619,0 3.90905,5.8438 3.90905,9.75034 0,4.18707 -1.38614,6.24966 -4.2,6.24966 -1.52622,0 -1.79792,-0.87457 -1.78635,-5.75 z m 110.65302,0.0833 c -2.49104,-2.491 3.93263,-11.3333 8.23333,-11.3333 1.78333,0 2.1,0.60317 2.1,4 0,4.81797 -2.71798,8 -6.83333,8 -1.55834,0 -3.13334,-0.3 -3.5,-0.66667 z m -113,-14 c -1.16522,-1.16521 -0.71814,-6.88068 0.68872,-8.80468 1.64378,-2.24801 4.64461,-1.41407 4.64461,1.29074 0,5.21539 -3.16825,9.67903 -5.33333,7.51394 z m 75.05322,-0.94678 c -0.97892,-0.97891 -0.883,-5.58098 0.15029,-7.21073 1.16533,-1.83802 7.16848,-1.09051 8.51509,1.06028 0.8525,1.36161 0.65855,2.15692 -0.89915,3.68695 -2.20647,2.16728 -6.65223,3.57751 -7.76623,2.4635 z m 31.3853,-2.7598 c -2.4646,-2.96963 1.65229,-6.62672 7.45991,-6.62672 1.88765,0 2.4349,0.52705 2.4349,2.34501 0,4.59576 -7.0885,7.66314 -9.89481,4.28174 z m -37.85519,-8.289 c -3.10674,-1.2536 0.27653,-15.33772 3.68441,-15.33772 1.37664,0 6.06559,6.38733 6.06559,8.2626 0,2.91338 -1.22621,4.80302 -4.07152,6.27439 -2.96389,1.53268 -3.63128,1.62679 -5.67848,0.80073 z"
     id="path4520"
     inkscape:connector-curvature="0" />
</svg>
